<?xml version="1.0" encoding="UTF-8" standalone="no"?>
<svg
   xmlns:dc="http://purl.org/dc/elements/1.1/"
   xmlns:cc="http://creativecommons.org/ns#"
   xmlns:rdf="http://www.w3.org/1999/02/22-rdf-syntax-ns#"
   xmlns:svg="http://www.w3.org/2000/svg"
   xmlns="http://www.w3.org/2000/svg"
   xmlns:sodipodi="http://sodipodi.sourceforge.net/DTD/sodipodi-0.dtd"
   xmlns:inkscape="http://www.inkscape.org/namespaces/inkscape"
   id="marker-stroked-15"
   width="15"
   height="15"
   viewBox="0 0 15 15"
   version="1.1"
   sodipodi:docname="maki-marker-stroked-15-5.svg"
   inkscape:version="1.0.1 (3bc2e813f5, 2020-09-07)"
   inkscape:export-filename="C:\mydata\fdot\aces\dev\mapbox-maki-a6d16d4\icons\renamed\maki-marker-stroked-15-1.png"
   inkscape:export-xdpi="299.96799"
   inkscape:export-ydpi="299.96799">
  <metadata
     id="metadata8">
    <rdf:RDF>
      <cc:Work
         rdf:about="">
        <dc:format>image/svg+xml</dc:format>
        <dc:type
           rdf:resource="http://purl.org/dc/dcmitype/StillImage" />
        <dc:title />
      </cc:Work>
    </rdf:RDF>
  </metadata>
  <defs
     id="defs6" />
  <sodipodi:namedview
     pagecolor="#ffffff"
     bordercolor="#666666"
     borderopacity="1"
     objecttolerance="10"
     gridtolerance="10"
     guidetolerance="10"
     inkscape:pageopacity="0"
     inkscape:pageshadow="2"
     inkscape:window-width="1920"
     inkscape:window-height="1051"
     id="namedview4"
     showgrid="false"
     inkscape:zoom="31.466667"
     inkscape:cx="-3.622881"
     inkscape:cy="6.4729517"
     inkscape:window-x="-9"
     inkscape:window-y="-9"
     inkscape:window-maximized="1"
     inkscape:current-layer="marker-stroked-15"
     inkscape:document-rotation="0" />
  <path
     style="fill:#a872d9;fill-opacity:1;stroke:#ffffff;stroke-width:0.1;stroke-linecap:butt;stroke-linejoin:miter;stroke-miterlimit:4;stroke-dasharray:none;stroke-opacity:1"
     d="M 7.5292799,0.66842364 C 5.0922909,0.57857284 2.4904861,2.6998984 2.9388936,5.6242755 c 0.4680309,3.0523546 4.431094,8.1794525 4.4651576,8.1726395 0,0 4.8676848,-5.6402277 4.7198898,-8.7916184 C 11.981509,1.9682553 9.7763289,0.75127144 7.5292799,0.66842364 Z"
     id="path844"
     inkscape:connector-curvature="0"
     sodipodi:nodetypes="sscss" />
  <path
     id="Layer_7"
     d="M7.5,14.941l-.4-.495c-.973-1.189-4.9-6.556-4.9-9.16A5.066,5.066,0,0,1,7.036,0q.222-.01.445,0a5.066,5.066,0,0,1,5.286,4.836q.01.225,0,.45c0,2.213-2.669,6.111-4.678,8.851ZM7.481.986a4.077,4.077,0,0,0-4.3,4.3c0,1.832,2.759,6.038,4.286,8.034,1.25-1.71,4.315-5.989,4.315-8.034a4.077,4.077,0,0,0-4.3-4.3Z"
     style="stroke:none;stroke-opacity:1;fill:#ffffff;fill-opacity:1" />
</svg>
